HIERARCHY
ROOT hip
{
  OFFSET 0 0 0
  CHANNELS 6 Xposition Yposition Zposition Zrotation Yrotation Xrotation
  JOINT abdomen
  {
    OFFSET 0 20.6881 -0.73152
    CHANNELS 3 Zrotation Xrotation Yrotation
    JOINT chest
    {
      OFFSET 0 11.7043 -0.48768
      CHANNELS 3 Zrotation Xrotation Yrotation
      JOINT neck
      {
        OFFSET 0 22.1894 -2.19456
        CHANNELS 3 Zrotation Xrotation Yrotation
        JOINT head
        {
          OFFSET -0.24384 7.07133 1.2192
          CHANNELS 3 Zrotation Xrotation Yrotation
          JOINT leftEye
          {
            OFFSET 4.14528 8.04674 8.04672
            CHANNELS 3 Zrotation Xrotation Yrotation
            End Site
            {
              OFFSET 1 0 0
            }
          }
          JOINT rightEye
          {
            OFFSET -3.6576 8.04674 8.04672
            CHANNELS 3 Zrotation Xrotation Yrotation
            End Site
            {
              OFFSET 1 0 0
            }
          }
        }
      }
      JOINT rCollar
      {
        OFFSET -2.68224 19.2634 -4.8768
        CHANNELS 3 Zrotation Xrotation Yrotation
        JOINT rShldr
        {
          OFFSET -8.77824 -1.95073 1.46304
          CHANNELS 3 Zrotation Xrotation Yrotation
          JOINT rForeArm
          {
            OFFSET -28.1742 -1.7115 0.48768
            CHANNELS 3 Zrotation Xrotation Yrotation
            JOINT rHand
            {
              OFFSET -22.5879 0.773209 7.07136
              CHANNELS 3 Zrotation Xrotation Yrotation
              JOINT rThumb1
              {
                OFFSET -1.2192 -0.487915 3.41376
                CHANNELS 3 Zrotation Xrotation Yrotation
                JOINT rThumb2
                {
                  OFFSET -3.37035 -0.52449 3.41376
                  CHANNELS 3 Zrotation Xrotation Yrotation
                  End Site
                  {
                    OFFSET -1.78271 -1.18214 1.43049
                  }
                }
              }
              JOINT rIndex1
              {
                OFFSET -7.75947 0.938293 5.60832
                CHANNELS 3 Zrotation Xrotation Yrotation
                JOINT rIndex2
                {
                  OFFSET -2.54057 -0.884171 1.56538
                  CHANNELS 3 Zrotation Xrotation Yrotation
                  End Site
                  {
                    OFFSET -1.62519 -0.234802 1.16502
                  }
                }
              }
              JOINT rMid1
              {
                OFFSET -8.24714 1.18213 3.41376
                CHANNELS 3 Zrotation Xrotation Yrotation
                JOINT rMid2
                {
                  OFFSET -3.10165 -0.590103 1.0647
                  CHANNELS 3 Zrotation Xrotation Yrotation
                  End Site
                  {
                    OFFSET -2.48547 -0.328903 0.83742
                  }
                }
              }
              JOINT rRing1
              {
                OFFSET -8.82822 0.546677 1.51678
                CHANNELS 3 Zrotation Xrotation Yrotation
                JOINT rRing2
                {
                  OFFSET -2.60934 -0.819778 -0.0198488
                  CHANNELS 3 Zrotation Xrotation Yrotation
                  End Site
                  {
                    OFFSET -2.33842 -0.294052 0.168128
                  }
                }
              }
              JOINT rPinky1
              {
                OFFSET -8.27202 -0.0477905 -0.4584
                CHANNELS 3 Zrotation Xrotation Yrotation
                JOINT rPinky2
                {
                  OFFSET -1.82734 -0.647385 -0.700984
                  CHANNELS 3 Zrotation Xrotation Yrotation
                  End Site
                  {
                    OFFSET -1.69225 -0.51767 -0.607171
                  }
                }
              }
            }
          }
        }
      }
      JOINT lCollar
      {
        OFFSET 2.68224 19.2634 -4.8768
        CHANNELS 3 Zrotation Xrotation Yrotation
        JOINT lShldr
        {
          OFFSET 8.77824 -1.95073 1.46304
          CHANNELS 3 Zrotation Xrotation Yrotation
          JOINT lForeArm
          {
            OFFSET 28.1742 -1.7115 0.48768
            CHANNELS 3 Zrotation Xrotation Yrotation
            JOINT lHand
            {
              OFFSET 22.5879 0.773209 7.07136
              CHANNELS 3 Zrotation Xrotation Yrotation
              JOINT lThumb1
              {
                OFFSET 1.2192 -0.487915 3.41376
                CHANNELS 3 Zrotation Xrotation Yrotation
                JOINT lThumb2
                {
                  OFFSET 3.37035 -0.52449 3.41376
                  CHANNELS 3 Zrotation Xrotation Yrotation
                  End Site
                  {
                    OFFSET 1.78271 -1.18214 1.43049
                  }
                }
              }
              JOINT lIndex1
              {
                OFFSET 7.75947 0.938293 5.60832
                CHANNELS 3 Zrotation Xrotation Yrotation
                JOINT lIndex2
                {
                  OFFSET 2.54057 -0.884171 1.56538
                  CHANNELS 3 Zrotation Xrotation Yrotation
                  End Site
                  {
                    OFFSET 1.62519 -0.234802 1.16502
                  }
                }
              }
              JOINT lMid1
              {
                OFFSET 8.24714 1.18213 3.41376
                CHANNELS 3 Zrotation Xrotation Yrotation
                JOINT lMid2
                {
                  OFFSET 3.10165 -0.590103 1.0647
                  CHANNELS 3 Zrotation Xrotation Yrotation
                  End Site
                  {
                    OFFSET 2.48547 -0.328903 0.83742
                  }
                }
              }
              JOINT lRing1
              {
                OFFSET 8.82822 0.546677 1.51678
                CHANNELS 3 Zrotation Xrotation Yrotation
                JOINT lRing2
                {
                  OFFSET 2.60934 -0.819778 -0.0198488
                  CHANNELS 3 Zrotation Xrotation Yrotation
                  End Site
                  {
                    OFFSET 2.33842 -0.294052 0.168128
                  }
                }
              }
              JOINT lPinky1
              {
                OFFSET 8.27202 -0.0477905 -0.4584
                CHANNELS 3 Zrotation Xrotation Yrotation
                JOINT lPinky2
                {
                  OFFSET 1.82734 -0.647385 -0.700984
                  CHANNELS 3 Zrotation Xrotation Yrotation
                  End Site
                  {
                    OFFSET 1.69225 -0.51767 -0.607171
                  }
                }
              }
            }
          }
        }
      }
    }
  }
  JOINT rButtock
  {
    OFFSET -8.77824 4.35084 1.2192
    CHANNELS 3 Zrotation Xrotation Yrotation
    JOINT rThigh
    {
      OFFSET 0 -1.70687 -2.19456
      CHANNELS 3 Zrotation Xrotation Yrotation
      JOINT rShin
      {
        OFFSET 0 -36.8199 0.73152
        CHANNELS 3 Zrotation Xrotation Yrotation
        JOINT rFoot
        {
          OFFSET 0.73152 -45.1104 -5.12064
          CHANNELS 3 Zrotation Xrotation Yrotation
          End Site
          {
            OFFSET -1.1221 -3.69964 12.103
          }
        }
      }
    }
  }
  JOINT lButtock
  {
    OFFSET 8.77824 4.35084 1.2192
    CHANNELS 3 Zrotation Xrotation Yrotation
    JOINT lThigh
    {
      OFFSET 0 -1.70687 -2.19456
      CHANNELS 3 Zrotation Xrotation Yrotation
      JOINT lShin
      {
        OFFSET 0 -36.8199 0.73152
        CHANNELS 3 Zrotation Xrotation Yrotation
        JOINT lFoot
        {
          OFFSET -0.73152 -45.1104 -5.12064
          CHANNELS 3 Zrotation Xrotation Yrotation
          End Site
          {
            OFFSET 1.1221 -3.69964 12.103
          }
        }
      }
    }
  }
}
MOTION
Frames:	4
Frame Time:	0.03333
0.029100000858306885 70.64009857177734 0.4819999933242798 2.1554000303149223 28.275099098682404 1.7705999314785004 -8.469370007514954 15.418300330638885 0.4184150090441108 3.2808398455381393 -8.78535971045494 0.14165900414809585 -7.356479912996292 15.73980063199997 -9.887559860944748 11.530300229787827 -25.26190012693405 -16.865900605916977 0.0 0.0 0.0 0.0 0.0 0.0 0.0 0.0 0.0 49.018598198890686 17.771700024604797 15.488700270652771 -28.317300975322723 -33.079600632190704 72.19949841499329 -0.028149500722065568 -4.783780127763748 -0.673898016102612 1.5859313862165436e-10 1.099920154956635e-09 -1.4222223398974165e-09 2.8137492336099967e-10 1.928697201947216e-09 -2.4556356947869062e-09 1.5859313862165436e-10 1.099920154956635e-09 -1.4222223398974165e-09 7.7309102565050125 5.474880114197731 0.41731400415301323 1.5859313862165436e-10 1.099920154956635e-09 -1.4222223398974165e-09 2.905540131032467 0.9651830233633518 0.102901995414868 1.5859313862165436e-10 1.099920154956635e-09 -1.4222223398974165e-09 10.27859978377819 0.7318009994924068 0.025912300043273717 1.5859313862165436e-10 1.099920154956635e-09 -1.4222223398974165e-09 2.221670038998127 -0.733487019315362 -0.2089200052432716 0.0 0.0 0.0 -92.31829762458801 64.73690092563629 20.19860029220581 28.255400955677032 -38.74899923801422 -81.70810103416443 4.465720094740391 -49.85289931297302 9.59134005010128 5.154277005203767e-10 2.992806003021542e-09 -4.092726157978177e-11 8.901679393602535e-10 5.0954440666828305e-09 -5.1159076974727213e-11 5.154277005203767e-10 2.992806003021542e-09 -4.092726157978177e-11 -7.7309102565050125 5.474880114197731 -0.41731400415301323 5.154277005203767e-10 2.992806003021542e-09 -4.092726157978177e-11 -2.905540131032467 0.9651830233633518 -0.102901995414868 5.154277005203767e-10 2.992806003021542e-09 -4.092726157978177e-11 -10.27859978377819 0.7318009994924068 -0.025912300043273717 5.154277005203767e-10 2.992806003021542e-09 -4.092726157978177e-11 -2.221670038998127 -0.733487019315362 0.2089200052432716 0.0 0.0 0.0 -37.268899977207184 -58.42359781265259 -27.99849897623062 -1.4485199376940727 63.49650263786316 1.4106099307537079 -0.7829270046204329 2.833309918642044 7.353300154209137 0.0 0.0 0.0 14.703600257635117 -5.38758996874094 2.4325500056147575 0.5194870149716735 54.61179792881012 -2.259180061519146 13.306500613689423 -13.421199917793274 29.07370001077652
0.07100000232458115 70.91480255126953 0.9785999953746796 3.4168999269604683 28.5127991437912 2.6569999381899834 -10.10170005261898 15.028800666332245 0.8280659839510918 3.549559973180294 -8.807129859924316 0.21629800787195563 -7.513820305466652 15.667300522327423 -10.036600157618523 11.438199877738953 -24.914401173591614 -17.19260036945343 0.0 0.0 0.0 0.0 0.0 0.0 0.0 0.0 0.0 48.132702112197876 17.955699563026428 16.010400652885437 -28.17720115184784 -31.81979924440384 70.17710208892822 -0.018142900516977534 -3.7504399940371513 -0.5279580177739263 -2.2254198484006338e-10 -8.44124770082999e-10 -7.980816008057445e-10 -3.7985614653734956e-10 -1.4375700629898347e-09 -1.3812950783176348e-09 -2.2254198484006338e-10 -8.44124770082999e-10 -7.980816008057445e-10 7.7309102565050125 5.474880114197731 0.41731400415301323 -2.2254198484006338e-10 -8.44124770082999e-10 -7.980816008057445e-10 2.905540131032467 0.9651830233633518 0.102901995414868 -2.2254198484006338e-10 -8.44124770082999e-10 -7.980816008057445e-10 10.27859978377819 0.7318009994924068 0.025912300043273717 -2.2254198484006338e-10 -8.44124770082999e-10 -7.980816008057445e-10 2.221670038998127 -0.733487019315362 -0.2089200052432716 0.0 0.0 0.0 -91.07059836387634 65.00499844551086 19.088699519634247 28.22099894285202 -39.03059899806976 -82.19949781894684 4.270990043878555 -49.092299938201904 9.33491013944149 9.72022462519817e-11 4.092726157978177e-10 -2.0463630789890885e-11 1.6626700016786344e-10 6.906475391588174e-10 -2.5579538487363607e-11 9.72022462519817e-11 4.092726157978177e-10 -2.0463630789890885e-11 -7.7309102565050125 5.474880114197731 -0.41731400415301323 9.72022462519817e-11 4.092726157978177e-10 -2.0463630789890885e-11 -2.905540131032467 0.9651830233633518 -0.102901995414868 9.72022462519817e-11 4.092726157978177e-10 -2.0463630789890885e-11 -10.27859978377819 0.7318009994924068 -0.025912300043273717 9.72022462519817e-11 4.092726157978177e-10 -2.0463630789890885e-11 -2.221670038998127 -0.733487019315362 0.2089200052432716 0.0 0.0 0.0 -38.24230045080185 -58.09149742126465 -28.711998760700226 -1.4473600499331951 63.58719885349274 1.4479300193488598 -0.8121619932353497 2.2060000710189342 5.862319841980934 0.0 0.0 0.0 13.571199774742126 -5.074479952454567 2.6397600397467613 0.44722599908709526 52.985799908638 -2.234780006110668 13.467700034379959 -14.139900505542755 29.092199206352234
0.12450000271201134 71.26180267333984 1.4512999951839447 4.1009001061320305 28.50739985704422 3.0108000710606575 -11.241500079631805 14.780000299215317 1.2871699780225754 3.6540598422288895 -8.84276032447815 0.3099349932745099 -7.616499960422516 15.689699649810791 -10.14730028808117 11.268099546432495 -24.729299247264862 -17.45779976248741 0.0 0.0 0.0 0.0 0.0 0.0 0.0 0.0 0.0 47.074801325798035 18.236399441957474 16.661399602890015 -28.00839900970459 -30.66229999065399 68.30659925937653 -0.012713899923255667 -3.217550106346607 -0.4526770021766424 -5.806555236631539e-10 -3.00815372611396e-09 3.785771696129814e-10 -1.0039968856290216e-09 -5.202878128329758e-09 6.599520929739811e-10 -5.806555236631539e-10 -3.00815372611396e-09 3.785771696129814e-10 7.7309102565050125 5.474880114197731 0.41731400415301323 -5.806555236631539e-10 -3.00815372611396e-09 3.785771696129814e-10 2.905540131032467 0.9651830233633518 0.102901995414868 -5.806555236631539e-10 -3.00815372611396e-09 3.785771696129814e-10 10.27859978377819 0.7318009994924068 0.025912300043273717 -5.806555236631539e-10 -3.00815372611396e-09 3.785771696129814e-10 2.221670038998127 -0.733487019315362 -0.2089200052432716 0.0 0.0 0.0 -90.165696144104 65.06060063838959 18.37990030646324 28.178601264953613 -39.33850049972534 -82.74439930915833 3.9232899248600006 -47.65220046043396 8.870039731264114 -5.896083621337311e-10 -3.356035449542105e-09 -1.0743406164692715e-10 -1.014228701023967e-09 -5.683773451892193e-09 -2.0975221559638157e-10 -5.896083621337311e-10 -3.356035449542105e-09 -1.0743406164692715e-10 -7.7309102565050125 5.474880114197731 -0.41731400415301323 -5.896083621337311e-10 -3.356035449542105e-09 -1.0743406164692715e-10 -2.905540131032467 0.9651830233633518 -0.102901995414868 -5.896083621337311e-10 -3.356035449542105e-09 -1.0743406164692715e-10 -10.27859978377819 0.7318009994924068 -0.025912300043273717 -5.896083621337311e-10 -3.356035449542105e-09 -1.0743406164692715e-10 -2.221670038998127 -0.733487019315362 0.2089200052432716 0.0 0.0 0.0 -38.534800708293915 -57.56830036640167 -28.853399455547333 -1.4293399639427662 63.49739849567413 1.4709100127220154 -0.8168889675289392 1.374990027397871 4.806100130081177 0.0 0.0 0.0 12.63590008020401 -4.176959842443466 2.8325800225138664 0.38637401070445776 51.31589949131012 -2.1938600577414036 13.511200100183487 -14.325600564479828 29.35119867324829
0.18640000373125076 71.5718002319336 1.8082999885082245 4.133299849927425 28.271499574184418 2.9712998494505882 -11.139100044965744 14.578099697828293 1.6430600546300411 3.364199884235859 -8.859559670090675 0.3879200108349323 -7.625549733638763 15.829099416732788 -10.189400240778923 10.8498003333807 -24.89930033683777 -17.63210043311119 0.0 0.0 0.0 0.0 0.0 0.0 0.0 0.0 0.0 45.76010048389435 18.65289956331253 17.54869982600212 -27.80279964208603 -29.547300338745117 66.53260231018066 -0.015013799857115373 -3.407069966197014 -0.47943999990820885 -1.8417267710901797e-10 -2.609112925711088e-09 1.7342927094432525e-09 -3.2230218494078144e-10 -4.527578312263358e-09 2.9979219107190147e-09 -1.8417267710901797e-10 -2.609112925711088e-09 1.7342927094432525e-09 7.7309102565050125 5.474880114197731 0.41731400415301323 -1.8417267710901797e-10 -2.609112925711088e-09 1.7342927094432525e-09 2.905540131032467 0.9651830233633518 0.102901995414868 -1.8417267710901797e-10 -2.609112925711088e-09 1.7342927094432525e-09 10.27859978377819 0.7318009994924068 0.025912300043273717 -1.8417267710901797e-10 -2.609112925711088e-09 1.7342927094432525e-09 2.221670038998127 -0.733487019315362 -0.2089200052432716 0.0 0.0 0.0 -89.70820248126984 64.87100064754486 18.068899512290955 28.13289910554886 -39.648301005363464 -83.29180061817169 3.4887200966477394 -45.69540023803711 8.275699764490128 -6.151879006210947e-10 -4.092726157978177e-09 -2.5579538487363607e-11 -1.0589928933768533e-09 -6.932054930075537e-09 -6.650680006714538e-11 -6.151879006210947e-10 -4.092726157978177e-09 -2.5579538487363607e-11 -7.7309102565050125 5.474880114197731 -0.41731400415301323 -6.151879006210947e-10 -4.092726157978177e-09 -2.5579538487363607e-11 -2.905540131032467 0.9651830233633518 -0.102901995414868 -6.151879006210947e-10 -4.092726157978177e-09 -2.5579538487363607e-11 -10.27859978377819 0.7318009994924068 -0.025912300043273717 -6.151879006210947e-10 -4.092726157978177e-09 -2.5579538487363607e-11 -2.221670038998127 -0.733487019315362 0.2089200052432716 0.0 0.0 0.0 -38.343999087810516 -57.05030143260956 -28.933500945568085 -1.4056500233709812 63.3255010843277 1.4847399853169918 -0.7510770298540592 0.9303119592368603 5.064979903399944 0.0 0.0 0.0 12.297900170087814 -2.8991299867630005 2.8393100202083588 0.3304020082578063 49.62520122528076 -2.1490400098264217 13.611600548028946 -14.234900325536728 29.949698746204376
